<svg xmlns="http://www.w3.org/2000/svg" width="100" height="100" viewBox="10 11 66 67" shape-rendering="geometricPrecision" image-rendering="optimizeQuality" fill-rule="evenodd"><defs><linearGradient id="A" gradientUnits="userSpaceOnUse" x1="32.518" y1="35.572" x2="52.67" y2="53.561"><stop offset="0" stop-color="#d9874f"/><stop offset="1" stop-color="#f6ca23"/></linearGradient><linearGradient id="B" gradientUnits="userSpaceOnUse" x1="63.948" y1="67.6" x2="25.748" y2="20.061"><stop offset="0" stop-color="#facd00"/><stop offset=".369" stop-color="#e3983a"/><stop offset=".588" stop-color="#fcdf4e"/><stop offset=".788" stop-color="#f8c300"/><stop offset="1" stop-color="#fff974"/></linearGradient><linearGradient id="C" gradientUnits="userSpaceOnUse" x1="32.012" y1="31.009" x2="53.858" y2="57.908"><stop offset="0" stop-color="#c52d29"/><stop offset="1" stop-color="#6b282a"/></linearGradient><linearGradient id="D" gradientUnits="userSpaceOnUse" x1="35.965" y1="37.465" x2="49.245" y2="51.622"><stop offset="0" stop-color="#f6bb00"/><stop offset=".259" stop-color="#fcda40"/><stop offset=".69" stop-color="#f8c300"/><stop offset="1" stop-color="#eea53b"/></linearGradient></defs><path d="M43.003 12.167l2.553 3.491 3.121-2.994 1.908 3.881 3.593-2.407 1.205 4.154 3.957-1.747.466 4.3 4.2-1.033-.288 4.315 4.315-.288-1.033 4.2 4.3.466-1.746 3.957 4.154 1.205-2.407 3.593 3.881 1.908-2.994 3.121 3.491 2.553-3.491 2.553 2.994 3.121-3.881 1.908 2.407 3.593-4.154 1.205 1.746 3.957-4.3.466 1.033 4.2-4.315-.288.288 4.315-4.2-1.033-.466 4.3-3.957-1.746-1.205 4.153-3.593-2.407-1.908 3.881-3.12-2.994-2.553 3.491-2.553-3.491-3.12 2.994-1.908-3.881-3.593 2.407-1.205-4.153-3.957 1.746-.466-4.3-4.2 1.033.288-4.315-4.315.288 1.033-4.2-4.3-.466 1.746-3.957-4.153-1.205 2.407-3.593-3.881-1.908 2.994-3.12-3.491-2.553 3.491-2.553-2.994-3.12 3.881-1.908-2.407-3.593 4.153-1.205-1.746-3.957 4.3-.466-1.033-4.2 4.315.288-.288-4.315 4.2 1.033.466-4.3 3.957 1.747 1.205-4.154 3.593 2.407 1.908-3.881 3.121 2.994z" fill="#fff974"/><path d="M42.82 11.719l2.553 3.491 3.121-2.994 1.908 3.881 3.593-2.407 1.205 4.153 3.956-1.747.466 4.3 4.2-1.033-.288 4.315 4.315-.288-1.033 4.2 4.3.466-1.747 3.956 4.154 1.205-2.407 3.593 3.881 1.908-2.994 3.121 3.491 2.553-3.491 2.553 2.994 3.121-3.881 1.908 2.407 3.593-4.154 1.205 1.747 3.956-4.3.466 1.033 4.2-4.315-.288.288 4.315-4.2-1.033-.466 4.3-3.956-1.747-1.205 4.153-3.593-2.407-1.908 3.881-3.12-2.994-2.553 3.491-2.553-3.491-3.12 2.994-1.908-3.881-3.593 2.407-1.205-4.153-3.957 1.747-.466-4.3-4.2 1.033.288-4.315-4.315.288 1.033-4.2-4.3-.466 1.747-3.956-4.153-1.205 2.407-3.593-3.881-1.908 2.994-3.12-3.491-2.553 3.491-2.553-2.994-3.12 3.881-1.908-2.407-3.593 4.153-1.205-1.747-3.956 4.3-.466-1.033-4.2 4.315.288-.288-4.315 4.2 1.033.466-4.3 3.957 1.747 1.205-4.153 3.593 2.407 1.908-3.881 3.121 2.994z" fill="url(#B)"/><g fill="#e1b634"><path d="M16.34 43.042l.7-.512a7.16 7.16 0 0 0 .757-.612c.122-.125.272-.271.381-.431.206-.288.34-.603.389-.923a1.82 1.82 0 0 0 .011-.464l-.131.118c-.385.308-.848.569-1.34.865l-.954.632c-.106.088-.199.225-.269.398-.079.193-.127.428-.14.677a3.04 3.04 0 0 0 .049.692l.545-.439zm.428-3.709l.769-.407.876-.491a2.36 2.36 0 0 0 .429-.375 2.25 2.25 0 0 0 .272-.381l.109-.216-.782-.229-.614.27-1.01.498-.041.025c-.108.073-.213.184-.305.326a1.9 1.9 0 0 0-.264.645 3.02 3.02 0 0 0-.023.696l.584-.362zm.76-1.974l.531-.237-1.25-.366-.132.377c-.055.215-.086.45-.091.689l.057-.032.884-.431z"/><path d="M16.796 40.959l1.265-.823a2.27 2.27 0 0 0 .387-.407c.189-.28.366-.581.446-.894a1.83 1.83 0 0 0 .058-.459l-.143.108c-.338.223-.723.413-1.135.614l-.747.406-.489.311a1.03 1.03 0 0 0-.308.375 2.14 2.14 0 0 0-.207.663 2.99 2.99 0 0 0-.02.691c.293-.214.598-.406.894-.586zm3.298-8.938l.983-.22a2.41 2.41 0 0 0 .521-.238l.372-.286.166-.176v.001l.169-.235.206-.414-.026.008-.149.04-.64.125-.155.023-.089.014.423.272-.423-.273-.668.085-1.114.188-.046.013c-.124.039-.258.116-.387.225a1.52 1.52 0 0 0-.422.55 3.02 3.02 0 0 0-.225.659l.666-.18.839-.18z"/><path d="M20.261 33.335a2.3 2.3 0 0 0 .491-.279c.272-.208.491-.467.67-.737.082-.133.144-.274.189-.421l-.169.061c-.385.119-.823.185-1.26.27l-.825.18-.561.157c-.133.043-.273.138-.405.271-.148.151-.285.35-.393.575-.094.201-.18.419-.201.663.314-.135.676-.226 1.009-.315l1.455-.427zm.276-2.814l.579-.076h0l.091-.014.438-.071.36-.078a2.56 2.56 0 0 0 .546-.193l.4-.252a2.01 2.01 0 0 0 .377-.378 1.86 1.86 0 0 0 .229-.404l-.025.006-.145.034c-.391.071-.813.091-1.263.109l-.866.047-.594.066c-.147.019-.289.098-.434.216l-.162.159-.047.046-.236.323a3.03 3.03 0 0 0-.287.633l.064-.014.974-.161zm-2.394 6.562l.398-.193.335-.173a2.51 2.51 0 0 0 .467-.34 2.31 2.31 0 0 0 .31-.356c.106-.148.191-.306.252-.47a1.85 1.85 0 0 0 .103-.452l-.023.014-.129.074c-.353.178-.751.317-1.177.463l-.814.289-.55.232a.89.89 0 0 0-.367.326l-.109.199-.031.058 1.251.366.083-.039z"/><path d="M18.665 37.13l-.141.066-.082.038.781.229.094-.273c.032-.154.082-.298.092-.452l-.023.014-.132.081-.589.297zm-.059-1.787l.908-.37c.163-.081.311-.195.465-.315.282-.216.503-.48.643-.771a1.82 1.82 0 0 0 .147-.44l-.16.075c-.46.184-.981.302-1.54.445-.371.09-.742.198-1.073.345-.127.053-.257.158-.376.304a2.12 2.12 0 0 0-.334.607c-.076.209-.129.438-.157.675l.653-.265.824-.29zm5.926-8.993l-.844-.061-.584-.007c-.14.004-.301.054-.467.145-.185.103-.372.255-.539.44a1.82 1.82 0 0 0-.373.584c.342-.039.698-.037 1.051-.022l1.519.002a2.31 2.31 0 0 0 .551-.128c.325-.119.598-.315.848-.522.116-.105.216-.223.3-.351l-.179.012c-.401.008-.848-.059-1.281-.091z"/><path d="M22.97 27.7a6.88 6.88 0 0 0-1.121.033c-.137.015-.292.079-.448.184-.173.119-.345.287-.494.487-.133.178-.249.383-.344.601l.703-.068.874-.045.979-.096a2.25 2.25 0 0 0 .531-.175c.329-.13.619-.318.836-.558a1.83 1.83 0 0 0 .266-.38l-.176.027c-.494.045-1.028.012-1.605-.009zm2.381-2.893l.578.091-.853-.984-.317.243a2.98 2.98 0 0 0-.454.526l.065.004.981.12z"/><path d="M26.723 25.813l-.533-.614-.666-.108-1.124-.133-.048-.001c-.13.003-.28.038-.435.106a1.5 1.5 0 0 0-.556.413 2.99 2.99 0 0 0-.403.567l.691.017.854.061 1.004.064a2.37 2.37 0 0 0 .567-.081 2.28 2.28 0 0 0 .438-.169l.21-.122zm3.67-4.113l.943.339a2.4 2.4 0 0 0 .567.084c.161.004.318-.01.469-.038l.236-.057-.339-.741-.609-.29-1.042-.447-.046-.015c-.126-.035-.28-.043-.448-.022-.216.018-.433.118-.647.245-.19.115-.376.261-.547.43l.659.212.804.299z"/><path d="M31.574 20.675l.53.251-.542-1.185-.374.143a3.02 3.02 0 0 0-.584.375l.061.024.909.392zm-5.554 4.236l.441.055.364.022c.187.013.387.002.579-.031.159-.028.311-.072.455-.128.17-.068.328-.153.469-.258a1.84 1.84 0 0 0 .333-.323h-.027l-.149-.008c-.395-.042-.806-.142-1.244-.25l-.845-.199-.59-.104c-.142-.018-.301.017-.473.09l-.201.107-.058.032.854.985.091.012zm.414.323l-.155-.022-.09-.013.533.615.229-.177c.117-.104.211-.23.311-.344h-.028l-.155-.004-.646-.056z"/><path d="M27.346 23.691l.967.184a2.24 2.24 0 0 0 .559-.018c.346-.042.682-.133.956-.304a1.81 1.81 0 0 0 .362-.288l-.176-.024c-.487-.096-.991-.279-1.54-.461-.364-.129-.716-.211-1.083-.279-.136-.024-.303-.007-.482.05-.2.064-.412.178-.612.327-.178.133-.347.296-.5.479l.695.132.853.203z"/><path d="M29.824 22.895a2.34 2.34 0 0 0 .565.033c.349-.016.658-.142.958-.267.141-.068.27-.151.387-.251l-.176-.04c-.389-.108-.797-.297-1.202-.444l-.794-.297-.559-.171c-.135-.036-.305-.033-.489.007-.207.045-.429.138-.642.269-.194.108-.365.273-.52.46.342.062.677.153 1.013.269l1.459.431zm8.888-4.423l.438.394-.184-1.29-.4.027a3.05 3.05 0 0 0-.668.187l.052.041.761.64zm-6.217 2.919l-.143-.065-.083-.038.338.741.269-.105a2.22 2.22 0 0 0 .392-.251l-.027-.007-.144-.04a6.11 6.11 0 0 1-.605-.235zm4.795-2.264l.806.578a2.44 2.44 0 0 0 .521.246 2.24 2.24 0 0 0 .461.1l.242.015.289-.021a1.83 1.83 0 0 0 .447-.128l-.023-.014-.128-.077a6.35 6.35 0 0 1-.514-.402l-.118-.104-.069-.06.077.537-.077-.538-.503-.457-.874-.731-.04-.027c-.111-.07-.257-.123-.424-.151-.207-.017-.445.005-.687.068-.215.055-.435.141-.648.252l.573.392.686.519z"/><path d="M36.405 20.103a2.34 2.34 0 0 0 .534.195c.338.08.676.07.991.002a1.8 1.8 0 0 0 .443-.125l-.157-.091-1.024-.753-.679-.513-.488-.325c-.12-.074-.283-.12-.472-.135-.211-.015-.452.009-.694.072-.215.054-.422.176-.625.304a8.19 8.19 0 0 1 .892.534l1.279.833z"/><path d="M33.803 20.167l.877.452c.167.068.354.119.542.143.335.031.691.062 1.001-.027a1.84 1.84 0 0 0 .43-.171l-.163-.074c-.441-.232-.873-.553-1.348-.886a9.26 9.26 0 0 0-.957-.564c-.124-.062-.289-.093-.477-.089-.21.004-.446.052-.681.137-.209.078-.417.184-.616.317l.63.325.762.438z"/><path d="M32.188 20.964l.408.178.343.123c.168.047.369.108.561.127.16.02.319.021.473.008a2.03 2.03 0 0 0 .523-.112 1.82 1.82 0 0 0 .412-.212l-.025-.008-.141-.051c-.368-.154-.735-.366-1.124-.596l-.755-.431-.535-.262c-.128-.051-.293-.066-.479-.045l-.223.046-.064.013.542 1.186.084.038zm12.445-2.353l.613.757c.126.121.273.264.432.376a2.31 2.31 0 0 0 .414.235l.227.087.282.067a1.85 1.85 0 0 0 .464.011l-.019-.019-.1-.112c-.133-.166-.257-.347-.379-.539l-.085-.135-.049-.078-.032.223.032-.224-.354-.587-.634-.949-.031-.035c-.088-.091-.213-.172-.367-.233a2.14 2.14 0 0 0-.677-.14 3.03 3.03 0 0 0-.692.05l.44.544.514.701zm1.549-.253l.308.508.184-1.29-.391-.092a2.88 2.88 0 0 0-.691-.02l.039.053.55.84zm-5.796-.39l.607.644.715.691a2.3 2.3 0 0 0 .48.297c.313.146.646.197.968.23.157.007.31-.004.461-.034l-.136-.119c-.358-.353-.682-.8-1.045-1.21l-.759-.817c-.101-.096-.251-.175-.433-.226-.203-.059-.442-.082-.691-.07-.222.019-.454.036-.678.137.177.138.347.311.51.479z"/><path d="M43.508 19.281a2.42 2.42 0 0 0 .457.345 2.13 2.13 0 0 0 .952.291 2.28 2.28 0 0 0 .465-.032l-.127-.122c-.27-.285-.516-.623-.774-.986l-.507-.692-.376-.456c-.094-.106-.238-.199-.416-.269a1.46 1.46 0 0 0-.684-.107 3.03 3.03 0 0 0-.686.118 11.32 11.32 0 0 1 .705.762l.993 1.146zm-4.288-.353l.341.289.295.219c.149.104.32.178.499.256a2.45 2.45 0 0 0 .453.147 2.03 2.03 0 0 0 .534.048 1.84 1.84 0 0 0 .456-.081l-.022-.015-.121-.089c-.31-.256-.602-.568-.912-.902l-.602-.635-.435-.377c-.109-.086-.263-.149-.448-.183l-.227-.022-.065-.006.184 1.291.071.061zm7.32.018l.247.379.221.298c.115.14.255.274.408.387.127.094.262.166.401.233a2.04 2.04 0 0 0 .496.206 1.83 1.83 0 0 0 .459.058l-.017-.021-.091-.123c-.224-.337-.415-.724-.617-1.136l-.409-.74-.312-.489c-.08-.114-.21-.221-.377-.308l-.212-.089-.061-.025-.184 1.291.05.079zm4.021 1.526a2.47 2.47 0 0 0 .339.467c.239.258.521.451.824.562.147.054.299.088.453.103l-.088-.151c-.177-.353-.316-.75-.459-1.176l-.289-.814-.231-.549a.98.98 0 0 0-.323-.373 2.13 2.13 0 0 0-.635-.272 3.06 3.06 0 0 0-.689-.091c.175.311.323.631.461.942l.637 1.354z"/><path d="M48.335 19.123l.489.876a2.36 2.36 0 0 0 .375.428c.259.232.557.395.87.475.15.042.298.084.45.097l-.095-.155-.668-1.431-.497-1.009c-.07-.123-.192-.242-.351-.345a2.05 2.05 0 0 0-.643-.27 3.08 3.08 0 0 0-.696-.023l.36.583c.147.242.279.511.405.775zm5.051 1.225l.15.578v.001l.025.09.127.437.126.35c.07.168.166.338.28.492.094.126.202.239.317.339.139.111.273.235.423.325.134.082.275.144.421.188l-.01-.025-.052-.143c-.122-.384-.184-.829-.276-1.256l-.181-.826-.159-.562c-.043-.133-.138-.273-.272-.406l-.177-.147-.051-.043-.346-.203a1.85 1.85 0 0 0-.666-.194l.023.06c.125.297.214.628.297.944z"/><path d="M51.823 20.161l.372.91a2.42 2.42 0 0 0 .317.46 2.4 2.4 0 0 0 .328.346l.193.15.247-.539-.247.54.251.147a1.82 1.82 0 0 0 .44.147l-.013-.024-.063-.137-.208-.629-.043-.155-.025-.09v-.001l-.171-.667a6.64 6.64 0 0 0-.348-1.069l-.02-.043a1.08 1.08 0 0 0-.285-.334 2.15 2.15 0 0 0-.608-.334c-.209-.076-.438-.129-.675-.157l.266.654.292.823zm6.459 3.522l.099.98a2.19 2.19 0 0 0 .175.531l.221.421.142.199.534-.614.024-.69c.021-.385.002-.748-.036-1.119l-.007-.046c-.024-.126-.084-.263-.177-.402a2.13 2.13 0 0 0-.488-.494c-.177-.133-.381-.25-.6-.344l.07.703.045.876zm1.45.617l-.02.597-.001.002-.001.093-.001.456.022.373a2.3 2.3 0 0 0 .129.551 2.16 2.16 0 0 0 .207.417l.32.427a1.81 1.81 0 0 0 .35.3l-.003-.027-.009-.153c-.008-.402.058-.848.085-1.279l.059-.845.007-.584c-.004-.141-.055-.302-.146-.468l-.127-.191-.037-.055-.274-.294c-.159-.156-.366-.271-.589-.367l.005.063a7 7 0 0 1 .024.984zm-4.496-2.608l.218.983a2.38 2.38 0 0 0 .237.52c.182.298.421.541.696.707l.412.211-.048-.175c-.112-.486-.174-.991-.241-1.556l-.187-1.113a1.07 1.07 0 0 0-.237-.433c-.137-.161-.318-.326-.547-.426a2.99 2.99 0 0 0-.659-.226l.178.667.177.842z"/><path d="M56.987 23.62a2.49 2.49 0 0 0 .192.545c.156.317.372.583.63.776a1.79 1.79 0 0 0 .404.229l-.042-.17c-.07-.391-.089-.812-.107-1.261l-.045-.865-.065-.594a.86.86 0 0 0-.212-.439 2.11 2.11 0 0 0-.529-.445 2.98 2.98 0 0 0-.632-.286c.078.348.129.699.173 1.036l.232 1.472zm8.632 6.12l-.179-.359c-.108-.195-.285-.357-.467-.515l-.013.062a7.28 7.28 0 0 1-.249.948l-.188.57 1.095-.705zm-2.31.107a2.25 2.25 0 0 0 .018.56l.098.463.08.231-.001.001.13.26c.081.134.177.254.288.362l.003-.026.021-.15a6.93 6.93 0 0 1 .165-.644l.049-.153.028-.089.001-.001.218-.655a7.59 7.59 0 0 0 .274-1.082l.007-.047c.013-.128-.007-.277-.058-.436-.064-.2-.178-.411-.327-.611a2.92 2.92 0 0 0-.479-.499l-.131.696-.203.853-.183.969z"/><path d="M62.298 29.032a2.15 2.15 0 0 0 .385.923c.094.125.202.237.323.334l.009-.175c.042-.395.143-.805.252-1.242l.2-.844.104-.588c.024-.146-.011-.306-.083-.477-.081-.192-.213-.392-.382-.576a2.96 2.96 0 0 0-.525-.454 11.48 11.48 0 0 1-.127 1.045l-.186 1.477a2.5 2.5 0 0 0 .03.579z"/><path d="M61.608 28.56l.34.314.004-.182c.019-.491.109-.999.202-1.559l.135-1.122c.007-.141-.028-.308-.105-.483-.081-.198-.22-.396-.41-.558a2.97 2.97 0 0 0-.567-.403l-.017.69-.063.855-.068 1.006a2.47 2.47 0 0 0 .08.566c.091.337.25.639.469.877zm-2.162-3.108l.004-.16v-.093l-.533.615.199.212a1.78 1.78 0 0 0 .378.266l-.004-.026-.022-.149-.023-.664zm7.583 9.877l-.451.878a2.2 2.2 0 0 0-.143.543l-.026.468.009.245.05.287a1.86 1.86 0 0 0 .17.43l.011-.025.063-.138a5.98 5.98 0 0 1 .345-.571l.091-.134.053-.078-.458.134.458-.134.397-.567.56-.957.019-.043c.049-.119.073-.268.07-.435a2.15 2.15 0 0 0-.138-.68c-.076-.209-.184-.418-.315-.617l-.325.631-.438.763zm.553 1.793l1.25-.366-.069-.396c-.068-.212-.181-.421-.312-.623l-.03.056c-.155.293-.319.568-.497.836l-.343.494z"/><path d="M65.977 34.576a2.73 2.73 0 0 0-.133.563c-.042.351-.007.692.104.996a1.8 1.8 0 0 0 .213.411l.058-.166c.154-.367.367-.733.597-1.122l.432-.753.269-.536c.052-.128.067-.293.046-.478a2.08 2.08 0 0 0-.203-.662c-.096-.2-.223-.398-.374-.584a11.9 11.9 0 0 1-.418.968l-.592 1.364zm-.782-1.624c-.049.178-.079.374-.084.567-.009.35.059.684.2.974.064.143.161.268.245.394l.052-.172c.147-.461.386-.928.631-1.438l.447-1.04c.047-.135.061-.305.037-.494-.02-.216-.109-.437-.241-.649a3.02 3.02 0 0 0-.43-.547l-.212.658-.3.802-.345.944zm-.699-2.416l-.13.437-.083.365a2.31 2.31 0 0 0-.033.566 2.24 2.24 0 0 0 .081.458c.051.174.123.336.193.497a1.84 1.84 0 0 0 .25.387l.005-.027.035-.149c.112-.392.288-.795.436-1.201l.296-.795.171-.56c.036-.136.033-.306-.008-.49l-.069-.22-.02-.063-1.095.705-.028.091zm4.103 11.98l-.691.716a2.29 2.29 0 0 0-.298.48 2.18 2.18 0 0 0-.147.443l-.039.237-.039.288a1.77 1.77 0 0 0 .035.46l.017-.021.101-.114c.153-.156.322-.304.5-.452l.126-.102.073-.06.506-.432.817-.761.032-.035a1.13 1.13 0 0 0 .194-.398c.059-.203.082-.443.07-.693-.014-.221-.043-.452-.142-.677-.139.178-.3.347-.473.511l-.643.609z"/><path d="M69.836 43.308l-.045.046-.716.661-.438.377-.074.061-.353.297-.275.261c-.128.133-.248.291-.345.459a2.34 2.34 0 0 0-.192.429 2 2 0 0 0-.1.524c-.008.156.004.311.036.464l.017-.02.1-.108c.284-.272.623-.517.986-.778l.692-.509.457-.377c.106-.095.198-.239.269-.416l.066-.222.019-.064.014-.399a3.03 3.03 0 0 0-.118-.686zM68.1 38.912l-.584.805a2.48 2.48 0 0 0-.246.521c-.111.333-.144.673-.095.992a1.9 1.9 0 0 0 .127.447l.091-.149c.277-.402.641-.781 1.024-1.202l.731-.872c.085-.116.146-.276.179-.464.027-.208-.003-.445-.062-.687a2.98 2.98 0 0 0-.253-.648l-.392.573-.518.685z"/><path d="M67.788 41.498c-.104.149-.176.319-.263.499a2.18 2.18 0 0 0-.195.986 1.85 1.85 0 0 0 .081.457l.105-.143c.255-.309.567-.6.902-.909l.635-.601c.147-.142.262-.286.385-.435a1.02 1.02 0 0 0 .182-.447c.039-.205.039-.446.001-.692a3.01 3.01 0 0 0-.186-.668 11.71 11.71 0 0 1-.682.811l-.964 1.141zm-.26-4.298l-.25.383-.185.326a2.31 2.31 0 0 0-.195.535 2.27 2.27 0 0 0-.056.463c-.003.181.016.358.06.528a1.81 1.81 0 0 0 .127.442l.013-.024.076-.134.746-1.025.512-.68.326-.488c.073-.121.119-.284.134-.474l-.003-.231v-.066l-1.251.366-.053.079zm1.344 12.252l-.769.407-.877.491a2.4 2.4 0 0 0-.429.375 2.25 2.25 0 0 0-.272.382l-.108.215.325.095-.325-.095-.093.274c-.033.153-.083.298-.092.451l.023-.015.131-.08.59-.298.141-.065.081-.039.001.001.614-.271 1.01-.498.041-.025c.108-.072.212-.184.305-.326.113-.179.218-.4.265-.644a3.08 3.08 0 0 0 .023-.696l-.584.361z"/><path d="M68.844 47.826l-1.264.823a2.28 2.28 0 0 0-.387.408c-.189.279-.366.581-.446.894a1.75 1.75 0 0 0-.058.458l.143-.107c.337-.223.723-.414 1.135-.615l.747-.405.489-.311a1.04 1.04 0 0 0 .308-.376c.098-.186.169-.416.207-.663.033-.22.039-.454.019-.691-.292.215-.598.407-.894.586z"/><path d="M69.3 45.743l-.7.512a7.26 7.26 0 0 0-.758.612c-.122.125-.271.271-.382.431-.205.288-.339.604-.388.923a1.85 1.85 0 0 0-.011.464l.131-.118c.384-.307.847-.569 1.34-.865l.953-.632a1 1 0 0 0 .27-.397 2.14 2.14 0 0 0 .139-.677c.011-.222-.005-.456-.049-.692l-.545.439zm-1.188 5.684l-.531.237 1.25.367.131-.378a2.94 2.94 0 0 0 .091-.689l-.057.032-.885.431zm-3.009 6.838l-.58.076v-.001l-.091.014-.438.071-.36.079a2.47 2.47 0 0 0-.546.193l-.4.251a1.99 1.99 0 0 0-.376.379c-.094.125-.17.26-.229.404l.025-.007.146-.034c.391-.071.812-.09 1.263-.109l.866-.047.594-.066c.146-.018.289-.098.434-.215l.162-.16.046-.046.236-.323c.115-.19.212-.404.286-.632l-.063.013-.974.162z"/><path d="M67.497 51.703l-.397.193-.337.173a2.49 2.49 0 0 0-.467.341 2.34 2.34 0 0 0-.31.355 1.99 1.99 0 0 0-.251.47 1.82 1.82 0 0 0-.103.452l.023-.014.128-.074c.354-.178.752-.318 1.177-.462l.815-.29.549-.232c.127-.061.269-.169.367-.326l.109-.2.032-.057-1.251-.367-.083.039zm-2.119 3.748a2.31 2.31 0 0 0-.49.279 3.03 3.03 0 0 0-.67.737 1.76 1.76 0 0 0-.188.422l.168-.062c.385-.119.823-.185 1.26-.269l.826-.181.561-.157a1.06 1.06 0 0 0 .406-.271 2.17 2.17 0 0 0 .392-.575c.093-.201.179-.418.2-.663-.313.136-.675.226-1.009.315l-1.455.427z"/><path d="M65.547 56.765l-.983.221c-.176.054-.356.137-.52.237l-.372.287-.166.175-.001-.001-.169.236-.206.413.026-.008.149-.039.639-.126.156-.023.089-.013-.306-.197.307.197.668-.084 1.114-.189.046-.013a1.16 1.16 0 0 0 .387-.224 1.51 1.51 0 0 0 .422-.551 2.98 2.98 0 0 0 .225-.658l-.666.179-.839.18zm1.486-3.321l-.908.369c-.163.081-.31.195-.465.315a2.18 2.18 0 0 0-.644.772 1.87 1.87 0 0 0-.146.439l.161-.074c.459-.184.98-.303 1.539-.446a6.28 6.28 0 0 0 1.074-.345c.127-.053.257-.158.375-.304a2.12 2.12 0 0 0 .334-.607 2.98 2.98 0 0 0 .157-.675l-.653.265-.824.291zM60.29 63.979l-.578-.09.854.984.317-.243c.164-.149.318-.328.453-.526l-.065-.005-.981-.119zm.847-1.314l-1.005-.064c-.184.003-.381.031-.566.08a2.28 2.28 0 0 0-.44.17l-.209.121-.229.177c-.118.103-.212.23-.312.344l.028-.001.155.005.646.055.155.023.09.012.001.001.666.107 1.123.134h.049a1.15 1.15 0 0 0 .434-.106c.201-.08.392-.224.556-.412a3.11 3.11 0 0 0 .403-.567l-.692-.017-.854-.061zm1.728-1.307l-1.52-.003c-.181.019-.372.063-.551.128-.326.119-.598.315-.847.522-.116.106-.216.223-.3.351l.18-.012c.402-.008.848.06 1.282.092l.844.06.583.007c.141-.004.302-.053.468-.145a2.12 2.12 0 0 0 .539-.44 1.83 1.83 0 0 0 .374-.584c-.342.039-.698.038-1.051.023z"/><path d="M63.5 59.895l-.979.097a2.2 2.2 0 0 0-.531.175c-.328.13-.619.318-.836.558a1.86 1.86 0 0 0-.266.379l.176-.026c.494-.046 1.027-.013 1.605.008a6.69 6.69 0 0 0 1.121-.033 1.02 1.02 0 0 0 .448-.184c.174-.118.345-.287.495-.487a2.94 2.94 0 0 0 .344-.601l-.703.069-.875.044zm-8.252 7.191l-.943-.339a2.37 2.37 0 0 0-.568-.084 2.26 2.26 0 0 0-.469.039l-.235.056.338.741.61.291 1.042.446.046.015c.127.035.28.043.449.022.216-.018.432-.117.647-.245a3 3 0 0 0 .547-.43l-.659-.211-.803-.3zm-1.182 1.025l-.53-.251.543 1.185.374-.143a3.08 3.08 0 0 0 .584-.374l-.061-.024-.909-.393z"/><path d="M55.816 65.891a2.3 2.3 0 0 0-.565-.033c-.348.014-.658.141-.957.266a1.85 1.85 0 0 0-.388.25l.176.041c.389.107.797.296 1.201.444l.794.296.559.172c.136.036.305.033.49-.007a2.17 2.17 0 0 0 .642-.27c.195-.108.365-.273.519-.459-.342-.063-.677-.154-1.013-.27l-1.459-.431zm3.805-2.016l-.441-.055-.364-.021a2.41 2.41 0 0 0-.579.031 2.34 2.34 0 0 0-.456.128c-.17.067-.328.152-.469.257-.125.094-.236.202-.333.323h.026l.149.008c.395.042.807.142 1.245.25l.845.199.589.104c.142.019.301-.017.474-.089l.201-.107.058-.031-.855-.985-.09-.013z"/><path d="M58.294 65.094l-.968-.184a2.25 2.25 0 0 0-.56.018c-.345.043-.682.133-.956.304-.134.081-.254.177-.362.288l.176.024c.487.096.99.279 1.539.462a7.26 7.26 0 0 0 1.084.279c.137.024.303.006.481-.051.201-.064.412-.177.612-.327a3.02 3.02 0 0 0 .499-.478l-.695-.132-.852-.203zm-5.924 2.018l.026.007.144.039c.2.064.401.146.605.237l.142.065.083.037-.338-.74-.27.104c-.142.067-.27.158-.392.251zm-4.02 2.548l-.806-.578a2.47 2.47 0 0 0-.521-.247 2.24 2.24 0 0 0-.461-.1l-.242-.015-.288.021a1.88 1.88 0 0 0-.448.128l.024.014.127.077a6.36 6.36 0 0 1 .514.403l.118.104.069.06-.096-.671.096.672.503.457.874.731.041.027a1.16 1.16 0 0 0 .423.151 2.07 2.07 0 0 0 .687-.068 3.02 3.02 0 0 0 .648-.252l-.573-.392-.686-.518zm-1.422.654l-.438-.393.184 1.289.4-.027a3.06 3.06 0 0 0 .667-.187l-.052-.041c-.27-.204-.522-.425-.762-.64zm4.91-1.695l-.877-.451a2.24 2.24 0 0 0-.543-.144c-.335-.03-.69-.062-1 .028a1.79 1.79 0 0 0-.43.171l.163.073c.441.232.873.553 1.349.886.305.204.624.397.956.564.124.062.289.093.478.089.21-.004.446-.051.68-.138a2.92 2.92 0 0 0 .616-.315l-.63-.325-.761-.439z"/><path d="M49.235 68.682a2.32 2.32 0 0 0-.533-.195c-.339-.081-.676-.07-.992-.003a1.75 1.75 0 0 0-.442.126l.157.09 1.023.753.678.512.488.326c.12.074.284.12.473.135a2.21 2.21 0 0 0 .693-.071c.215-.054.421-.177.626-.305a8.09 8.09 0 0 1-.892-.534l-1.28-.833zm4.217-.861l-.408-.178-.344-.123c-.167-.046-.369-.108-.561-.127a2.38 2.38 0 0 0-.474-.007 2.04 2.04 0 0 0-.522.111 1.78 1.78 0 0 0-.412.213l.024.008.142.05c.367.154.733.366 1.123.596l.755.431.534.262c.128.051.293.067.479.045l.223-.046.064-.013-.543-1.186-.084-.038zm-7.031 2.037l-.342-.289-.295-.218a2.82 2.82 0 0 0-.499-.257 2.38 2.38 0 0 0-.453-.146 1.99 1.99 0 0 0-.534-.049c-.156.007-.308.035-.456.081l.022.015.122.089c.309.256.601.568.911.902l.602.635.435.377c.109.086.263.149.448.184l.228.021.065.006-.184-1.291-.07-.061zm-6.963.57l-.308-.507-.184 1.289.391.093c.22.033.454.04.691.019l-.039-.053-.55-.84zm2.675-.924a2.43 2.43 0 0 0-.458-.345c-.303-.176-.629-.277-.951-.292-.156-.009-.312.009-.464.032l.127.123c.27.284.516.622.775.985l.507.692.377.457c.094.106.238.198.415.268.198.082.435.128.684.107a3.02 3.02 0 0 0 .687-.118c-.254-.245-.487-.507-.705-.763l-.992-1.146z"/><path d="M45.254 70.818l-.607-.644-.715-.691c-.142-.114-.308-.217-.481-.298-.313-.146-.645-.196-.968-.228a1.78 1.78 0 0 0-.46.034l.135.119c.358.352.683.799 1.045 1.209l.759.818c.102.096.251.174.433.226.203.058.442.081.691.069.222-.019.454-.036.678-.137a5.24 5.24 0 0 1-.51-.479zm-4.246-.644l-.613-.757c-.126-.121-.273-.264-.432-.376a2.39 2.39 0 0 0-.413-.235l-.228-.087-.046.321.046-.321-.282-.067a1.85 1.85 0 0 0-.463-.011l.018.019.099.112a6.31 6.31 0 0 1 .379.539l.085.135.049.078v.001l.354.587.634.949.031.035a1.09 1.09 0 0 0 .368.234c.194.078.428.127.677.139a2.98 2.98 0 0 0 .691-.049l-.44-.546-.514-.7zm-7.191-1.55l-.371-.909a2.47 2.47 0 0 0-.317-.461c-.1-.129-.211-.244-.328-.346l-.193-.15-.285.624.285-.624-.251-.147a1.87 1.87 0 0 0-.44-.147l.012.024.064.137.209.629.042.155.025.09v.001l.171.667a6.69 6.69 0 0 0 .348 1.07l.02.043c.058.113.155.228.284.333.163.132.373.249.608.334a2.97 2.97 0 0 0 .674.157l-.266-.653-.292-.824z"/><path d="M35.079 68.313a2.45 2.45 0 0 0-.339-.467 2.13 2.13 0 0 0-.825-.562 1.82 1.82 0 0 0-.453-.103l.088.151c.178.354.315.751.46 1.176l.289.814.231.549a.98.98 0 0 0 .323.374 2.1 2.1 0 0 0 .635.272 3 3 0 0 0 .689.09 11.31 11.31 0 0 1-.461-.94l-.637-1.355zm2.226 1.35l-.489-.875c-.103-.152-.232-.301-.376-.429-.259-.232-.557-.394-.87-.474-.151-.043-.298-.086-.451-.097l.095.154.669 1.431.496 1.009c.07.123.191.242.351.346.178.115.4.212.643.27a3.08 3.08 0 0 0 .696.023l-.36-.584a8.96 8.96 0 0 1-.405-.773z"/><path d="M39.1 69.84l-.246-.38-.222-.297a2.25 2.25 0 0 0-.408-.388 2.48 2.48 0 0 0-.4-.233c-.161-.091-.327-.162-.496-.206a1.84 1.84 0 0 0-.459-.058l.017.022.09.122c.224.337.416.724.618 1.136l.408.74.312.489a1.04 1.04 0 0 0 .377.308l.212.089.061.025.184-1.291-.05-.079zm-6.846-1.402l-.15-.578v-.001l-.025-.09-.128-.436-.126-.351a2.31 2.31 0 0 0-.28-.491 2.18 2.18 0 0 0-.317-.339c-.139-.112-.273-.236-.424-.326a1.81 1.81 0 0 0-.421-.188l.01.025.052.144c.122.383.184.829.275 1.255l.182.826.159.562a1.06 1.06 0 0 0 .272.406l.177.146.051.043.346.203a1.87 1.87 0 0 0 .666.194l-.023-.06c-.124-.296-.214-.627-.297-.944zm-1.849-1.344l-.219-.983a2.37 2.37 0 0 0-.237-.52c-.182-.297-.42-.54-.697-.707l-.412-.211.047.176c.113.486.173.991.241 1.556l.187 1.113c.033.138.114.288.237.434a1.55 1.55 0 0 0 .548.425 2.95 2.95 0 0 0 .658.226l-.178-.666-.177-.843zm-4.496-2.608l.019-.598-.853.984.274.293a1.93 1.93 0 0 0 .589.368l-.006-.064a7.14 7.14 0 0 1-.023-.983zm1.449.616l-.098-.979c-.034-.177-.094-.361-.175-.532l-.221-.421-.142-.199-.533.615-.025.689c-.02.385-.002.748.036 1.119l.007.046c.023.126.084.263.178.402a2.14 2.14 0 0 0 .487.495c.178.133.382.249.6.344l-.069-.704-.046-.876z"/><path d="M28.653 65.165a2.47 2.47 0 0 0-.192-.545c-.155-.317-.371-.583-.63-.776-.125-.094-.26-.17-.404-.229l.041.171c.07.39.089.81.107 1.261l.045.865.065.593c.019.145.09.299.211.439.133.161.316.315.529.445.19.115.405.213.633.287-.078-.349-.129-.699-.173-1.037l-.233-1.472zm-5.311-5.412a2.15 2.15 0 0 0-.385-.923c-.094-.125-.202-.236-.323-.333l-.008.175c-.043.395-.143.805-.252 1.242l-.2.844-.105.589c-.024.146.011.306.084.477.082.191.214.391.382.576a2.99 2.99 0 0 0 .525.453c.024-.357.073-.708.126-1.045l.187-1.477a2.48 2.48 0 0 0-.03-.579z"/><path d="M22.331 58.938a2.23 2.23 0 0 0-.018-.56l-.098-.463-.08-.231-.685.441-.218.656c-.123.361-.207.715-.275 1.081l-.006.047a1.09 1.09 0 0 0 .057.436 2.15 2.15 0 0 0 .327.612 3.02 3.02 0 0 0 .479.499l.132-.696.202-.854.182-.969zm-2.31.108l.18.359c.108.195.285.358.466.516l.013-.063c.066-.323.141-.632.25-.949l.187-.568-1.095.705zm6.173 4.287l-.003.161-.001.092.533-.614-.198-.213a1.82 1.82 0 0 0-.38-.266l.005.026.022.15.022.663zm-2.162-3.107l-.34-.315-.004.182c-.019.491-.11.999-.202 1.559l-.135 1.122c-.008.142.028.308.105.483a1.49 1.49 0 0 0 .409.558 2.95 2.95 0 0 0 .567.404l.018-.691.063-.855.067-1.005c-.003-.184-.031-.381-.081-.567a2.1 2.1 0 0 0-.468-.876zm1.898 3.568l.001-.455-.022-.374a2.32 2.32 0 0 0-.129-.551 2.25 2.25 0 0 0-.207-.417l-.32-.427a1.85 1.85 0 0 0-.351-.3l.002.027.009.153c.008.403-.058.849-.085 1.279l-.059.845-.007.585c.004.14.054.301.146.467l.128.192.037.055.854-.985.002-.094zm-7.319-10.337l.451-.879a2.24 2.24 0 0 0 .143-.543l.026-.468-.009-.245h0l-.05-.287a1.86 1.86 0 0 0-.17-.43l-.011.025-.064.138a6.63 6.63 0 0 1-.345.572l-.09.134-.052.077.457-.134-.457.135-.397.567-.559.957-.02.043c-.049.118-.073.268-.07.434.004.211.052.447.138.681.077.209.184.418.315.616l.325-.631.437-.763zm-.552-1.793l-1.25.367.069.396a2.71 2.71 0 0 0 .312.623l.03-.057.497-.836.343-.494z"/><path d="M21.714 57.09l-.021.149c-.041.211-.099.425-.166.644l-.048.153-.028.09.684-.441-.13-.26c-.081-.133-.177-.254-.288-.362l-.003.027z"/><path d="M21.145 58.251l.13-.438.084-.364c.034-.18.045-.376.032-.567-.011-.158-.039-.311-.081-.458-.05-.174-.123-.335-.192-.496a1.8 1.8 0 0 0-.25-.388l-.005.027-.035.149c-.113.392-.288.795-.437 1.201l-.295.795-.171.561c-.036.136-.033.305.008.49l.069.219.02.063 1.096-.705.028-.09z"/><path d="M20.446 55.833a2.42 2.42 0 0 0 .084-.567c.009-.349-.058-.683-.199-.974-.064-.143-.161-.268-.245-.394l-.052.172c-.148.461-.387.928-.631 1.438l-.447 1.041a1.1 1.1 0 0 0-.036.494 1.51 1.51 0 0 0 .241.648c.115.19.261.375.43.547l.212-.658.3-.803.345-.944z"/><path d="M19.663 54.211c.059-.173.111-.37.133-.563a2.16 2.16 0 0 0-.104-.996 1.84 1.84 0 0 0-.213-.411l-.059.165c-.154.367-.367.733-.597 1.122l-.432.754-.269.535c-.052.128-.067.293-.046.479.024.207.094.437.202.661a2.96 2.96 0 0 0 .375.584c.124-.336.271-.659.417-.968l.592-1.363zm-2.622-7.941l.691-.716a2.3 2.3 0 0 0 .297-.48c.066-.145.114-.293.147-.442l.039-.238h0l.038-.289c.008-.156-.004-.31-.034-.46l-.018.021-.102.115a6.89 6.89 0 0 1-.5.451l-.126.102-.072.06H17.4l-.505.432-.817.762-.031.035a1.12 1.12 0 0 0-.195.398 2.15 2.15 0 0 0-.069.692c.014.222.042.453.142.677.139-.177.301-.347.473-.511l.643-.609z"/><path d="M17.853 47.288c.104-.149.175-.319.263-.499.144-.325.212-.662.195-.986a1.81 1.81 0 0 0-.082-.456l-.105.143c-.256.308-.567.6-.902.908l-.635.601c-.148.142-.262.286-.384.436a1.01 1.01 0 0 0-.183.446c-.038.205-.038.446 0 .693.033.219.097.446.187.667.217-.287.451-.556.681-.81l.965-1.141zm-2.004-1.856c.232-.237.477-.456.716-.662l.437-.377h.001l.074-.061.353-.297.274-.26a2.44 2.44 0 0 0 .345-.46 2.27 2.27 0 0 0 .191-.429 2 2 0 0 0 .101-.523 1.84 1.84 0 0 0-.036-.464l-.017.019-.101.108c-.284.271-.623.517-.986.777l-.692.509-.456.378c-.106.094-.199.238-.268.415l-.067.222-.019.064-.014.399a3.03 3.03 0 0 0 .118.686l.046-.045z"/><path d="M17.541 49.874l.584-.805a2.4 2.4 0 0 0 .246-.521c.111-.333.144-.673.095-.992a1.85 1.85 0 0 0-.128-.447l-.09.149c-.276.402-.641.781-1.024 1.202l-.731.872a1.12 1.12 0 0 0-.179.464c-.026.208.003.446.063.687.055.215.141.435.252.649l.393-.573.519-.686zm.572 1.711l.25-.383.186-.326a2.34 2.34 0 0 0 .195-.535c.035-.155.052-.31.055-.463a1.98 1.98 0 0 0-.059-.527 1.82 1.82 0 0 0-.126-.443l-.013.024-.077.134-.746 1.025-.512.68-.325.489c-.073.12-.12.284-.134.474l.002.23.001.067 1.251-.367.053-.079z"/></g><path d="M65.744 44.457c0 12.598-10.213 22.81-22.81 22.81s-22.808-10.212-22.808-22.81S30.338 21.65 42.934 21.65s22.81 10.211 22.81 22.808z" fill="url(#C)"/><path d="M23.502 40.418l.317-1.183c.144-.539.325-.91.544-1.113s.495-.258.83-.169c.227.061.399.164.516.309s.166.311.149.496l.026.007c.118-.227.266-.374.442-.441s.385-.068.63-.002c.346.093.583.29.71.593s.133.669.018 1.099l-.381 1.423-3.801-1.018zm1.721-.402l.126-.469c.059-.218.067-.385.026-.501s-.14-.195-.296-.237c-.145-.039-.264-.014-.356.076s-.169.25-.231.48l-.114.424.845.226zm.64.171l.99.265.141-.525c.059-.222.061-.397.004-.526s-.172-.215-.347-.262c-.315-.084-.533.098-.654.549l-.134.5zm2.584-6.364c.564.326.916.716 1.058 1.171s.062.943-.239 1.465-.685.835-1.15.94-.98-.007-1.547-.334-.92-.718-1.058-1.171-.055-.942.248-1.466.684-.836 1.146-.94.975.008 1.541.335zm-1.436 2.487c.38.22.709.313.985.28s.497-.194.663-.482c.333-.576.116-1.086-.65-1.528s-1.318-.378-1.649.195c-.166.288-.194.56-.085.818s.354.496.735.716zm3.467-6.133c.182.176.27.386.264.629s-.099.492-.28.744l.012.012c.277-.235.54-.365.792-.39s.471.053.66.235a1 1 0 0 1 .312.913c-.053.356-.259.722-.62 1.095-.401.416-.775.7-1.12.852l-.504-.486a2.52 2.52 0 0 0 .549-.295 3.21 3.21 0 0 0 .491-.409c.46-.476.551-.848.274-1.116-.126-.121-.295-.138-.51-.05s-.466.282-.756.582l-.256.265-.469-.453.23-.238c.29-.3.472-.546.547-.737s.047-.35-.085-.478a.37.37 0 0 0-.356-.095c-.14.03-.293.131-.459.303a2.01 2.01 0 0 0-.514.993l-.653-.125a2.45 2.45 0 0 1 .261-.741 3.2 3.2 0 0 1 .507-.674c.298-.309.6-.492.907-.552s.565.013.776.216zm.733-1.7l1.027-.667c.468-.304.85-.458 1.149-.462s.541.14.729.43c.128.197.187.389.177.576s-.085.342-.221.468l.014.022c.24-.09.448-.1.623-.032s.332.207.47.42c.195.301.239.606.131.916s-.349.586-.722.828l-1.235.802-2.143-3.3zm1.548.852l.407-.264c.19-.123.308-.242.354-.355s.027-.239-.061-.374c-.082-.126-.187-.187-.315-.182s-.292.073-.493.203l-.368.239.476.734zm.361.556l.558.86.456-.296c.193-.125.311-.255.355-.388s.016-.276-.083-.427c-.178-.274-.462-.284-.853-.03l-.434.282zm3.619-2.357l.264-.076c.246-.071.417-.172.512-.305a.53.53 0 0 0 .062-.478c-.054-.188-.145-.312-.273-.373s-.303-.059-.522.004l-.365.105.322 1.122zm1.639-1.119c.117.407.079.754-.114 1.043s-.524.501-.992.635l-.344.099.386 1.345-.802.23-1.085-3.782 1.208-.346c.459-.132.836-.133 1.131-.004s.5.389.612.781zm3.829 2.092l-.412-.888-1.421.2-.152.968-.891.125.826-4.106 1.01-.142 1.931 3.719-.891.125zm-.707-1.553l-.642-1.365-.108-.251-.266 1.758 1.015-.143zm3.628 1.796l-.826-.116.451-3.209-1.058-.149.097-.688 2.943.414-.097.688-1.059-.149-.451 3.209zm2.949-.182l.276.129a9.17 9.17 0 0 0 1.218-1.153 10.7 10.7 0 0 0 1.015-1.381l2.079.97-1.37 2.937.475.222-.778 1.669-.729-.34.485-1.039-2.235-1.042-.485 1.039-.729-.34.778-1.669zm2.815-1.496c-.225.348-.496.702-.811 1.062s-.626.671-.933.934l1.393.65 1.076-2.307-.724-.338zm2.778 5.69l-1.711-1.487 2.582-2.97 1.711 1.487-.448.516-1.081-.94-.567.652 1.005.874-.448.516-1.005-.874-.666.766 1.081.94-.452.52zm2.687 3.049l-.512-.655 1.339-1.046-.96-1.229-1.339 1.046-.514-.657 3.101-2.423.514.657-1.215.949.96 1.229 1.215-.949.512.655-3.101 2.423zm1.441 2.879l-.958-2.054 3.566-1.663.958 2.054-.619.289-.605-1.298-.783.365.563 1.207-.619.289-.563-1.207-.92.429.605 1.298-.624.291zm4.736 2.01l-.659.201-.483-1.581-3.104.949-.244-.798 3.763-1.151.727 2.378zm-34.847 8.993l-.696.148-.355-1.669-3.278.697-.179-.843 3.974-.845.534 2.512zm-2.367 4.455l.741-.689-.65-1.332-.999.16-.407-.835 4.296-.499.462.946-3.036 3.083-.407-.835zm1.299-1.19l1.135-1.066.212-.186-1.812.3.464.951zm2.106 2.464l.175.224c.163.209.326.333.489.372s.324-.003.482-.126.243-.259.251-.406-.061-.312-.206-.498l-.241-.309-.95.742zm1.705 1.137c-.345.269-.692.367-1.042.294s-.682-.307-.992-.704l-.228-.292-1.139.889-.53-.679 3.202-2.501.799 1.023c.304.389.451.749.442 1.081s-.179.629-.511.888zm.968 4.311l.364-.944-1.168-.912-.827.582-.732-.572 3.642-2.332.83.648-1.377 4.102-.732-.572zm.646-1.639l.553-1.455.109-.26-1.497 1.064.834.652zm4.273 4.201l-.784-.349.713-1.602-1.471-.655-.713 1.602-.787-.35 1.653-3.712.787.35-.647 1.454 1.471.655.647-1.454.784.349-1.653 3.712zm3.358.713l-.846-.164.638-3.284-1.083-.211.137-.704 3.013.586-.137.704-1.084-.211-.638 3.284zm2.168-3.692l.772-.068.171 1.954.035.525.024.598.017-.001 1.6-3.237 1.026-.09.354 4.048-.764.067-.17-1.944-.051-1.161-.023.002-1.606 3.265-1.033.09-.354-4.048zm5.941 1.042l.268-.092c.25-.086.421-.2.511-.342s.103-.307.038-.497-.166-.314-.302-.37-.315-.044-.538.033l-.37.128.393 1.14zm1.63-1.243c.142.413.122.774-.061 1.082s-.513.545-.989.709l-.35.12.47 1.366-.814.28-1.323-3.842 1.227-.423c.466-.161.855-.182 1.166-.066s.536.374.673.772zm4.346-1.695c.366.564.507 1.088.424 1.573s-.385.897-.907 1.236-1.022.447-1.498.326-.898-.465-1.267-1.033-.51-1.092-.424-1.573.391-.892.915-1.232 1.022-.449 1.495-.328.893.465 1.261 1.031zm-2.487 1.615c.247.38.505.62.775.719s.548.055.836-.132c.576-.374.616-.945.119-1.71s-1.035-.965-1.608-.593c-.288.187-.441.425-.462.713s.093.623.341 1.004zm1.884-3.781l.862-.925c.393-.421.738-.671 1.036-.75s.577.005.838.249c.178.166.285.343.321.533s.001.364-.105.524l.02.019c.218-.15.424-.212.616-.188s.384.125.576.303c.271.252.391.547.36.885s-.203.674-.516 1.01l-1.037 1.112-2.971-2.771zm1.764.467l.342-.366c.159-.171.248-.319.266-.444s-.033-.246-.155-.36c-.114-.106-.235-.141-.361-.103s-.275.146-.443.326l-.309.332.66.616zm.5.467l.774.722.383-.411c.162-.173.248-.333.259-.477s-.053-.28-.189-.408c-.246-.23-.533-.169-.862.183l-.364.391zm4.958-3.858l-.985-.229-.741 1.283.691.739-.464.804-2.816-3.282.526-.912 4.254.793-.464.804zm-1.713-.412l-1.518-.345-.273-.072 1.262 1.334.529-.917zm3.493-4.816l-.208.833-1.702-.424-.389 1.562 1.702.424-.208.836-3.942-.983.208-.836 1.545.385.389-1.562-1.545-.385.208-.833 3.942.983z" fill="#fff" fill-rule="nonzero"/><circle cx="42.594" cy="44.566" r="13.666" fill="url(#A)"/><circle cx="42.605" cy="44.544" r="13.205" fill="url(#D)"/><path d="M36.909 34.714l.97.804 1.054-.646-.449 1.152.924.822-1.235-.071-.496 1.133-.313-1.196-1.231-.122 1.054-.646zm11.713.247l-.311 1.222 1.035.675-1.234.088-.346 1.187-.464-1.146-1.236.037.947-.796-.417-1.164 1.036.675zm-5.927-2.633l.537 1.576h1.633l-1.302.986.472 1.564-1.341-.934-1.34.934.473-1.564-1.301-.986h1.633zm-5.154 20.856l-.976-.599 1.14-.113.289-1.108.46 1.049 1.143-.067-.855.761.416 1.067-.976-.598-.898.745zm9.669.188l-.959.625.386-1.078-.876-.737 1.145.035.43-1.061.321 1.099 1.142.081-.959.625.288 1.131zm-5.065 1.699h-1.512l1.205-.913-.438-1.448 1.241.864 1.241-.864-.437 1.448 1.205.913h-1.512l-.497 1.459z" fill="#fffee2"/><g fill="#1f1a17"><path d="M33.472 39.665h1.054v9.748h-1.675v-7.228l-1.191.766v-2.033l1.811-1.253zm6.283 9.115c-.442.515-1.056.773-1.842.773s-1.398-.258-1.836-.773-.657-1.237-.657-2.166v-4.122c0-.928.219-1.655.657-2.179s1.05-.787 1.836-.787 1.4.262 1.842.787.664 1.251.664 2.179v4.122c0 .928-.221 1.65-.664 2.166zm-1.842-.982c.595 0 .893-.395.893-1.184v-4.122c0-.808-.298-1.212-.893-1.212-.587 0-.881.404-.881 1.212v4.122c0 .789.294 1.184.881 1.184zm7.486.982c-.442.515-1.056.773-1.842.773s-1.398-.258-1.836-.773-.657-1.237-.657-2.166v-4.122c0-.928.219-1.655.657-2.179s1.05-.787 1.836-.787 1.4.262 1.842.787.664 1.251.664 2.179v4.122c0 .928-.221 1.65-.664 2.166zm-1.842-.982c.595 0 .893-.395.893-1.184v-4.122c0-.808-.298-1.212-.893-1.212-.587 0-.881.404-.881 1.212v4.122c0 .789.294 1.184.881 1.184z" fill-rule="nonzero"/><path d="M48.658 39.678h0c.844 0 1.535.693 1.535 1.54v1.495c0 .847-.691 1.54-1.535 1.54h0c-.844 0-1.535-.693-1.535-1.54v-1.495c0-.847.691-1.54 1.535-1.54zm0 .926h0c.328 0 .597.236.597.524v1.675c0 .288-.269.524-.597.524h0c-.328 0-.597-.236-.597-.524v-1.675c0-.288.269-.524.597-.524zm3.38 4.436h0c.844 0 1.535.693 1.535 1.54v1.495c0 .847-.691 1.54-1.535 1.54h0c-.844 0-1.535-.693-1.535-1.54V46.58c0-.847.691-1.54 1.535-1.54zm0 .926h0c.328 0 .597.236.597.524v1.674c0 .288-.269.524-.597.524h0c-.328 0-.597-.236-.597-.524V46.49c0-.288.268-.524.597-.524z" stroke="#1f1a17" stroke-width=".159"/><path d="M52.358 39.582h1l-5.043 10.005h-1z"/><path d="M53.429 39.619l-.07.043h-1l-.001-.159h1l.071.116zm-.071-.116h.13l-.058.116-.071-.116zm-5.042 10.164l-.071-.116 5.043-10.005.141.073-5.043 10.005-.07.043zm.07-.043l-.022.043h-.048l.07-.043zm-1.141-.073l.07-.043h1l.001.159h-1l-.071-.116zm.071.116h-.13l.058-.116.071.116zm5.042-10.164l.071.116-5.043 10.005-.141-.073 5.043-10.005.07-.043zm-.07.043l.022-.043h.048l-.07.043z" fill-rule="nonzero"/></g></svg>